<svg width="170" height="170" viewBox="0 0 170 170" fill="none" xmlns="http://www.w3.org/2000/svg">
<path d="M33.2272 138.822L23.0422 132.707L23.042 132.707C19.9279 130.837 17.351 128.194 15.562 125.033C13.773 121.872 12.8329 118.302 12.8333 114.67V114.669L12.8333 58.6639L12.8333 58.6634C12.8319 54.0956 14.0123 49.6052 16.2598 45.6286C18.5056 41.6549 21.7407 38.3294 25.6509 35.9749L25.9252 35.8148L25.9336 35.8099L25.942 35.8049C30.0583 33.3317 34.77 32.025 39.5722 32.025C44.3744 32.025 49.0861 33.3317 53.2024 35.8049L53.2029 35.8052L99.9598 63.8774L85.4086 72.6164C85.4085 72.6164 85.4084 72.6165 85.4083 72.6166C83.4016 73.8211 81.7409 75.5246 80.5879 77.5613C79.4348 79.5982 78.8288 81.8989 78.8288 84.2394C78.8288 86.58 79.4348 88.8807 80.5879 90.9176C81.7409 92.9543 83.4016 94.6579 85.4083 95.8623C85.4084 95.8624 85.4085 95.8625 85.4086 95.8625L101.447 105.494L73.6548 122.181L73.6543 122.181C72.646 122.787 71.8117 123.644 71.2325 124.667C70.6532 125.691 70.3487 126.847 70.3486 128.024V128.024V147.195C70.3486 147.196 70.3486 147.196 70.3486 147.196C70.3483 147.973 70.5543 148.736 70.9454 149.407C71.3366 150.079 71.899 150.634 72.5752 151.017C73.2514 151.4 74.0172 151.597 74.7943 151.587C75.5713 151.577 76.3319 151.361 76.9981 150.961L76.9984 150.961L128.773 119.866C131.252 118.377 133.303 116.273 134.728 113.756C136.152 111.24 136.901 108.398 136.901 105.506C136.901 102.614 136.152 99.7721 134.728 97.2557C133.303 94.7394 131.252 92.6346 128.773 91.1464L118.755 85.132L128.773 79.1174L128.773 79.1172C131.251 77.6287 133.301 75.5242 134.725 73.0083C136.149 70.4925 136.897 67.651 136.897 64.7603C136.897 61.8696 136.149 59.0281 134.725 56.5122C133.301 53.9964 131.251 51.8918 128.773 50.4033L128.772 50.403L65.2135 12.2576L74.1884 6.86276C77.4604 4.89867 81.2049 3.86111 85.0212 3.86111C88.8375 3.86111 92.582 4.89867 95.8541 6.86276L95.8542 6.86284L147 37.5571C147 37.5572 147.001 37.5572 147.001 37.5573C150.114 39.4269 152.691 42.0707 154.48 45.2315C156.269 48.3923 157.209 51.9625 157.209 55.5944V114.684C157.21 118.316 156.269 121.886 154.48 125.047C152.691 128.208 150.115 130.852 147 132.721L95.8542 163.415L95.8541 163.415C92.582 165.379 88.8375 166.417 85.0212 166.417C81.2049 166.417 77.4604 165.379 74.1884 163.415L61.4716 155.78L61.4714 155.779C60.9068 155.441 60.4397 154.961 60.1154 154.388C59.7911 153.815 59.6208 153.168 59.6211 152.509V152.509V56.0478V56.0469C59.6204 54.8709 59.3157 53.7151 58.7366 52.6916C58.1575 51.6682 57.3237 50.8118 56.316 50.2055L56.3149 50.2048L39.8768 40.3354L39.8768 40.3353C39.2105 39.9353 38.4499 39.7194 37.6729 39.7095C36.8958 39.6997 36.13 39.8963 35.4538 40.2793C34.7776 40.6622 34.2152 41.2178 33.824 41.8893C33.4329 42.5606 33.227 43.3237 33.2272 44.1006C33.2272 44.1008 33.2272 44.101 33.2272 44.1013V138.822Z" fill="white" stroke="white" stroke-width="3"/>
<g opacity="0.2">
<path opacity="0.85" d="M37.2875 32.1261C38.0454 32.0605 38.8077 32.0274 39.5722 32.0274C44.3742 32.0274 49.0858 33.3332 53.2027 35.8051C53.2028 35.8051 53.2028 35.8051 53.2028 35.8052L99.9398 63.8735L97.9497 65.0619L49.7795 36.1988C49.7791 36.1986 49.7787 36.1983 49.7783 36.1981C45.9661 33.909 41.6939 32.5215 37.2875 32.1261Z" fill="white" stroke="white" stroke-width="3"/>
<path opacity="0.85" d="M85.3945 95.8625L85.3946 95.8626L101.45 105.497L99.3837 106.742L81.996 96.2711L81.9942 96.27C80.4314 95.3321 79.1382 94.0055 78.2403 92.4194C77.3424 90.8333 76.8705 89.0418 76.8705 87.2192C76.8705 85.3966 77.3424 83.605 78.2403 82.0189C78.5667 81.4423 78.9454 80.9 79.3703 80.3982C79.0033 81.6403 78.8147 82.9336 78.8147 84.2394C78.8147 86.58 79.4207 88.8807 80.5737 90.9176C81.7268 92.9544 83.3876 94.658 85.3945 95.8625Z" fill="white" stroke="white" stroke-width="3"/>
<path opacity="0.85" d="M70.2318 127.728L70.3585 127.652C70.3521 127.77 70.3488 127.888 70.3486 128.007V128.01V147.182L70.3486 147.183C70.3489 147.955 70.5531 148.714 70.9406 149.382C71.1911 149.815 71.5127 150.199 71.8898 150.521L70.4922 151.363C70.4918 151.364 70.4913 151.364 70.4909 151.364C70.2797 151.49 70.0389 151.559 69.7928 151.562C69.5463 151.565 69.3034 151.502 69.0888 151.381C68.8742 151.26 68.6956 151.083 68.5712 150.871C68.447 150.658 68.3813 150.416 68.3808 150.17V130.999C68.3808 130.999 68.3808 130.999 68.3808 130.999C68.3809 130.34 68.5514 129.693 68.8757 129.12C69.1999 128.547 69.6669 128.067 70.2311 127.728C70.2312 127.728 70.2314 127.728 70.2315 127.728C70.2316 127.728 70.2317 127.728 70.2318 127.728Z" fill="white" stroke="white" stroke-width="3"/>
</g>
</svg>
